<?xml version="1.0" encoding="UTF-8"?>
<svg data-name="Layer 2" version="1.1" viewBox="0 0 2907.9 720.43" xmlns="http://www.w3.org/2000/svg">
 <defs>
  <style>.cls-1 {
        fill: #ffbb10;
      }

      .cls-1, .cls-2, .cls-3, .cls-4, .cls-5, .cls-6, .cls-7 {
        stroke-width: 0px;
      }

      .cls-3 {
        fill: none;
      }

      .cls-4 {
        fill: #d557ff;
      }

      .cls-5 {
        fill: #fff;
      }

      .cls-6 {
        fill: #ff2e6a;
      }

      .cls-7 {
        fill: #27ffdb;
      }</style>
 </defs>
 <g data-name="Warstwa 1">
  <path class="cls-2" d="m1509.83,542.58c2.07,25.68,21.19,46.88,46.61,51.11,4.33.72,8.89,1.09,13.67,1.09,75.89,0,209.46-19.86,274.47-90.45,0,.23-.02.47-.03.7-.37,12.24-.1,21.53.85,29.22,2.51,20.48,11.4,34.57,26.4,41.86,16.31,7.93,37.11,8.79,45.3,8.79h.01c15.03,0,28.45-2.46,39.91-7.31,20.05-8.48,33.33-24.03,37.39-43.78,4.59-22.25,5.49-106.22,5.62-122.82.1-11.95.12-22.7.08-32.4,7.19-6.66,15.01-13.87,21.35-19.69.81.26,1.59.51,2.29.74,8.87,2.87,18.92,6.13,30.18,6.13,1.74,0,3.47-.09,5.18-.25-2.05,11.83-3.9,23.97-5.43,35.86-2.82,21.98-1.9,46.18,2.59,68.13,5.59,27.33,16.64,50.98,31.95,68.38,20.42,23.21,47.83,35.48,79.28,35.48,29.1,0,53.35-4.92,72.47-11.22,7.59,9.01,16.69,13.03,23.29,14.82,7.33,1.98,18.12,3.17,28.86,3.17,34.58,0,53.53-11.72,63.91-24.09,11.62,8.91,26.39,12.8,39.16,15.19,15.75,2.96,35.19,4.52,56.2,4.52h0c20.22,0,59.51-1.55,95.42-11.95,26.85-7.78,46.65-19.17,61.3-32.43,1.6,9.78,4.44,18.77,9.19,27.25,14.99,26.74,50.07,26.74,61.6,26.74,6.13,0,12.31-.33,18.28-.97,5.96-.64,11.71-1.59,16.94-2.81,22.38-5.21,36.85-16.19,43.02-32.63,1.65-4.41,3.45-9.21,4.61-33.15.12,1.27.25,2.53.38,3.75,1.84,17.1,4.36,40.52,24.24,53.22,10.9,6.96,24.48,10.49,40.38,10.49,20.81,0,48.98-6.5,65.6-24.72,10.92-11.97,16.02-27.46,15.51-83.11-.27-29.59-2.3-65.17-5.3-92.86-3.89-36.04-11.86-62.88-25.07-84.47-17.3-28.29-43.68-47.39-78.4-56.78-11.41-3.08-23.05-4.65-34.59-4.65-4.61,0-9.06.27-13.38.71-4.4-31.94-9.16-58.26-12.55-75.37-4.78-24.24-9.89-45.84-14.75-62.47-7.27-24.84-13.38-37.25-22.54-45.78-15.36-14.29-34.18-21.84-54.44-21.84-31.19,0-60.35,18.43-70.91,44.82-6.92,17.3-3.05,32.67,2.8,55.94,8.05,32.02,22.44,89.26,29.48,203.91-10.59-9.04-22.74-16.4-35.98-21.73,10.15-10.39,17.14-24.59,19.7-40.84,4.24-26.92-3.99-53.07-21.48-68.24-13.46-11.68-33.38-17.12-62.69-17.12-23.48,0-58.55,4.1-86.56,15.61-18.84,7.75-35.36,20.06-48.15,35.61-.9-.94-1.84-1.87-2.84-2.76-11.9-10.63-28.99-15.8-52.24-15.8-19.8,0-67.26,3.84-80.37,39.44-3.42,9.27-4.77,21.51-6.59,45.55-.11-3.07-.44-6.65-1.02-11.02-2.74-20.63-15.26-36.01-36.27-47.9-15.29-8.64-33.31-13.6-49.44-13.6-12.5,0-23.96,2.88-33.69,8.39-15.42-18.28-41.25-23.86-51.27-26.03-22.89-4.93-46.38-5.94-55.42-6.15-.48-.01-.96-.02-1.45-.02-15.39,0-30.76,5.36-46.53,16.28-9.56-5.29-18.84-6.46-25.1-6.46-1.66,0-3.36.08-5.03.24-40.19,3.83-65.6,15.92-77.51,36.9-10.03-11.17-21.61-20.96-34.6-29.12,16.44-34.78,17.09-76.87-.82-110.53-12.72-23.92-32.11-44.1-56.07-58.35-27.16-16.16-59.05-24.36-94.8-24.36-3.35,0-6.79.08-10.2.23-44.94,1.93-84.77,20.18-110.27,35.14-15.67,9.2-53.29,33.45-64.03,59.76-9.74,23.85-.97,60.63,12.73,81.03,7.18,10.67,20.6,19.51,30.86,24.14.51,26.39,2.91,53.19,2.54,74.27l-13.8,233.42Zm155.89-371.39c5.68,0,9.2,1.89,10.08,3.08.46.63.71,3.18-.52,7.43-1.13,1.89-5.18,5.81-13.55,10.68-.45-7.46-.91-14.37-1.38-20.66,1.82-.36,3.62-.53,5.37-.53Zm53.56,239.89c-2.07,2.19-14.78,13.77-62.1,27.4-.24.07-.48.14-.72.21,2.16-23.96,4.5-54.91,6.36-91.85,9.57-1.48,20.29-2.61,30.8-2.61,17,0,30.53,3.11,36.21,8.33,5.23,4.8,7.78,10.34,8.03,17.43.45,12.76-6.67,28.51-18.58,41.09Zm679.28,10.73c-7.74,0-16.42.6-24.86,4.19.46-9.27,1.07-18.25,1.89-26.53,9.2,9.2,20.38,16.54,33.37,21.8.8.32,1.6.64,2.41.94-4.69-.24-8.97-.4-12.81-.4Z"/>
  <path class="cls-3" d="m1756.9 323.09c-34.09-31.31-107.23-15.72-132.8-8.98-0.2 7.89-0.48 15.8-0.86 23.67-4.56 95.42-12.55 152.55-12.55 152.55s105.65-17.94 137.66-51.75c32.01-33.82 42.58-84.23 8.55-115.49z"/>
  <path class="cls-3" d="m1713.4 193.83c13.54-44.2-24.7-70.48-64.39-60.55-9.8 2.45-20.34 7.52-30.88 13.8 2.5 25.89 5.01 62.4 5.95 102.78 31.86-8.83 80.36-26.81 89.31-56.03z"/>
  <path class="cls-5" d="m1789 259.6c-12.57-7.36-26.36-12.24-40.52-15.29 3.85-2.58 7.66-5.54 11.3-8.93 24.24-22.6 35.64-65.79 17.82-99.3-17.82-33.5-57.74-64.16-124.04-61.31s-132 52.95-138.98 70.06c-4.7 11.53 4.61 57.5 27.64 53.7 3.17-0.52 7.9-3.19 13.75-7.18 0.72 47.05 2.58 104.21 0.64 137.8-3.56 61.67-14.26 175.72-12.83 197.82s11.17 27.8 26.38 27.8c88.4 0 221.07-27.36 260.2-98.38 39.56-71.81 23.69-158.72-41.35-196.8zm-139.95-126.32c39.69-9.93 77.93 16.35 64.39 60.55-8.95 29.21-57.45 47.19-89.31 56.03-0.94-40.38-3.45-76.89-5.95-102.78 10.54-6.28 21.08-11.34 30.88-13.8zm99.32 305.3c-32.01 33.82-137.66 51.75-137.66 51.75s7.99-57.13 12.55-152.55c0.38-7.88 0.66-15.78 0.86-23.67 25.57-6.74 98.71-22.33 132.8 8.98 34.03 31.25 23.45 81.67-8.55 115.49z"/>
  <path class="cls-5" d="m2003 250c-18.99-0.44-41.25 22.56-52.26 35.51-4.78-13.87-10.17-26.68-21.14-25.63-14.97 1.43-41.35 5.7-47.05 17.82-5.22 11.1 10.69 47.76 11.41 92.67 0.71 44.91-18.2 163.19-4.66 169.77 13.54 6.59 60.95 9.84 65.94-14.4 3.33-16.17 5.58-103.09 4.69-164.44 12.53-11.62 35.84-33.22 44.53-41 12.12-10.86 38.5 7.29 51.66 5.31 13.17-1.98 30.24-37.62 26.04-53.57-4.21-15.95-52.75-21.44-79.15-22.04z"/>
  <path class="cls-5" d="m2343.6 266.96c-11.41-10.19-63.45-5.91-68.44 7.64-4.99 13.54-5.7 96.24-14.97 127.6-9.27 31.37-43.49 69.15-79.84 57.74-36.36-11.41 12.12-142.57 9.98-159.68s-45.62-35.64-62.73-21.39c-14.03 11.69-27.8 77.7-34.22 127.6s9.98 126.89 74.14 126.89 98.38-28.51 98.38-28.51-2.48 30.71 7.84 33.5c8.55 2.32 49.9 5.7 54.89-14.26s2.14-93.39 8.55-140.44c6.42-47.05 17.82-106.52 6.42-116.7z"/>
  <path class="cls-5" d="m2543.2 347.52c-45.22-10.54-95.33-3.66-98.85-23.38-3.53-19.72 0.58-34.35 31.94-36.48s42.48 11.65 60.76 3.88c18.73-7.96 20.84-43.73 7.22-55.54s-73.46-8.85-107.83 5.28c-34.37 14.12-61.13 52.92-47.62 102.76s64.06 46.79 102.65 50.44 75.45 18.93 48.49 52.22c-26.96 33.3-141.64 9.52-151.22 16.46-9.57 6.94-19.59 42.75-10.92 58.3 8.68 15.56 100.18 20.64 157.9 3.92s70.36-51.96 74.56-90.25-21.86-77.08-67.08-87.62z"/>
  <path class="cls-5" d="m2862.8 386.88c-5.7-52.75-21.39-92.67-74.14-106.93-30.75-8.31-55.93 0.82-71.58 9.88-10.29-102.29-32.64-197.09-43.05-206.78-23.46-21.83-54.53-7.49-60.95 8.55s27.62 66.33 36.89 277.34c4.08 92.88-11.62 145.4 2.23 170.13 5.79 10.33 63.21 7.25 67.49-4.16 3.7-9.87 4.1-113.06 2.22-173.4 19.86-11.78 44.88-22.66 57.49-12.42 22.81 18.53 15.68 181.78 28.51 189.98s44.71 3.68 54.89-7.48c7.8-8.55 5.7-91.96 0-144.71z"/>
  <path class="cls-2" d="m1425.66,336.8c-.52-6.98-1.79-13.9-3.96-20.56-.85-2.6-1.77-5.14-2.78-7.63-15.09-37.24-48.04-62.3-88.51-72.06-12.68-3.06-25.5-4.61-38.1-4.61-14,0-26.67,1.88-37.87,4.74-2.04-2.35-4.25-4.57-6.68-6.61-15.22-12.87-37.07-14.8-48.74-14.8-29.05,0-52.48,11.45-64.27,31.41-2.02,3.41-3.78,7.2-5.26,12.11-23.07-28.57-64.49-46.21-111.41-46.21-32.25,0-63.66,8.51-90.84,24.6-22.56,13.36-41.39,34.18-54.69,60.05-2.68-4.38-5.62-8.58-8.87-12.57-17.96-22.05-44.29-37.42-80.5-46.98-12.54-3.31-26.06-4.99-40.19-4.99-22.95,0-44.76,4.36-62.54,9.52-11.86-4.78-25.28-5.86-34.92-5.86-8.94,0-21.79.92-34.41,5.04-.55-2.5-1.13-5-1.75-7.53-32.35-130.95-129.29-200.7-186.83-200.7-14.9,0-25.78,4.38-33.43,9.53-2.12-4.3-4.91-8.38-8.37-12.12C363.35,11.71,326.81,0,285.37,0c-1.84,0-3.71.02-5.57.07-40.45.99-72.5,14.36-90.23,37.64-2.06,2.71-3.87,5.51-5.47,8.39-.47-.02-.95-.05-1.43-.05-25.05,0-50.34,18.13-63.13,44.22-4.75-1.69-9.83-2.59-15.02-2.59-15.47,0-28.09,7.56-35.96,13.91-7.39,5.96-17.1,16.12-21.4,30.67-1.58,5.33-2.25,10.69-2.08,15.91-.45.44-.9.89-1.35,1.36C21.04,173.17-1.89,231.46.12,280.55c1.09,26.45,6.42,50.52,11.72,68.53-7.97,22.68,1.9,49.2,5.75,59.55,7.96,21.4,20.64,45.21,34.78,65.33,31.09,44.22,72.84,77.69,117.58,95.03,5.22,7.06,12.98,14.29,24.48,20.51,13.88,7.49,31.45,12.67,53.69,15.83,14.63,2.08,30.87,3.14,48.25,3.14,23.93,0,46.23-1.99,62.23-3.91,4.99.59,10.03,1.02,15.12,1.25,2.31.1,4.65.15,6.98.15,33.13,0,66.52-10.4,94.01-29.3,22.1-15.19,38.18-34.33,46.91-55.39l37.33-49.32c6.29-8.3,13.28-18.46,20.18-30.33.58,10.25,1.04,20.43,1.3,30.34,1.12,41.91-5.06,89.21-9.58,123.75-5.33,40.81-7.77,59.43-1.4,75.35,5.9,14.76,19.32,27.28,39.89,37.2,9.4,4.55,28.05,12.17,47.24,12.17,14.31,0,25.48-4.29,33.76-10.57,8.29-6.29,13.68-14.58,16.43-22.6,1.78-5.18,5.94-17.3,11.05-102.25.75-12.39,1.42-24.84,2-37.06,5.71-.71,11.72-1.5,18.07-2.39,42.86-6,82.38-27.66,111.26-61,6.18-7.12,11.75-14.68,16.68-22.53,25.96,63.58,82.37,104.77,146.72,104.77,44.51,0,85.5-15.15,112.57-34.65,1.87,18.52,6.96,34.1,21.88,44.04,3.94,2.63,15.92,10.61,44.2,10.62,21.71,0,40.01-4.27,53.7-12.13,13.69-7.85,22.77-19.28,26.02-33.6,2.75-12.06,3.78-44.88,4.71-151.17,3.29-6.17,6.95-11.6,9.81-14.91.83,5.65,1.92,16.67,2.32,36.96.43,21.89-.06,47.22-.46,67.57-.64,33.01-.72,44.39.74,52.77,4.06,23.35,24.85,48.3,71.02,48.3,18.53,0,41.31-2.99,54.88-17.52,24.91-26.68,14.55-188.12,11.72-226.28Zm-1001.83,10.94l-3.87,3.9c-3.16-.3-6.34-.47-9.54-.47-20.05,0-38.81,5.87-57.26,14.65-6.17.76-11.99,1.16-17.37,1.16-21.22,0-34.05-5.68-47.88-14.85-5.65-3.75-11.66-8.94-17.47-13.96-8.21-7.08-17.04-14.7-27.23-19.95-1.4-14.99-8.27-27.77-12.03-33.77-10.48-16.74-28.12-27.22-46.18-27.53-.13-7.83.59-15.45,1.24-22.38.57-6.15,1.18-12.61.95-19.12,5.56-4.72,10.18-9.97,13.83-14.78,6.46-8.53,17.36-25.72,17.76-45.03.13-6.7-1.02-13.14-3.34-19.01,2.02-2.59,3.87-5.29,5.52-8.07,1.43.11,2.88.17,4.35.17h.01c12.5,0,24.04-4.07,37.39-8.79,8.88-3.13,18.94-6.68,29.83-9.19,16.03-3.69,27.5-4.11,34.73-4.11,3.81,0,7.13.13,10.34.26,2.78.12,5.42.22,8.05.22,6.3,0,11.83-.82,16.69-2.25,4.46,20.96,20.51,35.05,34.89,47.66,21.45,18.82,48.14,42.24,57.05,94.07,6.85,39.83-3.4,73.87-30.46,101.17Zm315.28,39.75c-3.4,4.42-9.56,8.34-17.61,11.52-.16-5.35-.36-10.87-.58-16.49,7.1-2.24,14.96-4.04,23.24-4.8.3-.03.6-.05.89-.07-1.09,2.57-2.93,5.92-5.94,9.84Z"/>
  <path class="cls-3" d="m740.5 337.89c-25.19 2.32-46.84 11.31-60.9 18.69 1.76 29.49 2.62 62.71 2.81 90.56 25.15-1.5 67.63-8.19 88.43-35.29 30.65-39.92 14.17-78.05-30.34-73.96z"/>
  <path class="cls-4" d="m82.54 366.6c9.4-0.07 0.72-24.9-4.62-40.47s-10.62-41.88-2.28-43.95c8.34-2.06 13.83 21.37 20.16 17.57s-14.26-46.72-3-51.12 17.31 10.98 27.38 31.61c10.06 20.63 27.38 49.95 32.96 47.13s-10.33-26.16-1.78-29.3c0.02 0 0.05-0.01 0.07-0.02-2.52-8.66-4.74-18.62-5.79-29.12-3.25-32.4 7.04-59-2.58-59.39-9.61-0.38-13.13 26.06-16.08 10.58-2.94-15.48 0.93-28.44 9.68-51.93s0.47-27.64-10.79-18.06-21.99 39.39-28.09 52.63c-6.09 13.24-15.69 15.91-15.39 5.98s11.63-35.15-1.58-36.23-42.68 59.06-40.73 106.4c1.45 35.27 11.72 65.62 16.86 78.82 8.24-0.36 18.05 8.93 25.59 8.88zm-13.59-124.41c9.11-1.4 13.43 26.32 1.82 27.34s-12.73-25.66-1.82-27.34z"/>
  <path class="cls-4" d="m89.3 153.51c8.26 5.36 23.9-19.71 17.84-24.99-6.05-5.28-32.14 15.72-17.84 24.99z"/>
  <path class="cls-4" d="m151.34 190.1c11.12-1.19 27.21-23.35 27.45-35.3s-15.79-7.33-25.97 11.63-7.38 24.3-1.48 23.67z"/>
  <path class="cls-1" d="m202.53 529.87c8.27-6.88 17.36-16.54-12.9-25.45s-64.73-33.97-54.85-47.92 51.91 9.01 48.86-7.46-56.49-56.66-55.9-82.02 19.56-19.43 39.16 1.61 50.46 38.95 54.81 26.03c4.2-12.47-21.6-27.51-12.32-38.95-6.12-3.82-16.09-11.51-27.87-26.11-19.63-24.34-21.59-34.6-30.08-31.54-0.02 0-0.05 0.01-0.07 0.02-8.55 3.14 7.36 26.48 1.78 29.3s-22.9-26.49-32.96-47.13c-10.06-20.63-16.12-36.01-27.38-31.61s9.33 47.32 3 51.12-11.82-19.64-20.16-17.57c-8.34 2.06-3.07 28.38 2.28 43.95s14.03 40.4 4.62 40.47c-7.54 0.05-17.35-9.24-25.59-8.88-2.04 0.09-3.98 0.76-5.77 2.32-9.02 7.86 8.13 54.23 33.92 90.92 27.36 38.92 67.74 72.64 114.05 85.7 0.15-2.8 1.45-5.17 3.38-6.78zm-83.4-86.59c-6.1 6.77-21.07 0.25-27.73-10.89s-7.27-19.97 1.17-21.46c7.61-1.35 15.01 2.66 24.08 14.87 4.44 5.98 6.76 12.72 2.48 17.48z"/>
  <path class="cls-1" d="m70.78 269.53c11.6-1.02 7.28-28.73-1.82-27.34-10.91 1.67-9.78 28.35 1.82 27.34z"/>
  <path class="cls-6" d="m252.57 499.16c-17.41-25.34-23.46-52.06-23.46-52.06s40.25 15.3 85.48-12.55c18.33-11.28 34.86-22.04 50.42-30.02-49.48 7.73-76.74-4.17-99.21-19.08-24.35-16.15-42.9-42.58-55.26-31-0.44 0.41-0.82 0.82-1.15 1.24-9.28 11.45 16.52 26.48 12.32 38.95-4.35 12.92-35.21-4.99-54.81-26.03s-38.57-26.98-39.16-1.61c-0.59 25.36 52.85 65.55 55.9 82.02s-38.98-6.49-48.86 7.46 24.59 39.01 54.85 47.92 21.18 18.56 12.9 25.45c-1.93 1.61-3.23 3.98-3.38 6.78-0.48 9.19 11.5 22.96 54.6 29.08 38.58 5.48 81.74 1.53 105.01-1.49-46.01-6.74-83.52-32.08-106.19-65.08z"/>
  <path class="cls-6" d="m92.57 410.93c-8.44 1.5-7.83 10.32-1.17 21.46s21.63 17.66 27.73 10.89c4.28-4.75 1.96-11.5-2.48-17.48-9.07-12.21-16.48-16.22-24.08-14.87z"/>
  <path class="cls-6" d="m180.47 297.88c-4.81 2.86-2.78 15.29 1.64 23.86 4.42 8.58 12.54 11.16 17.63 8.85 7.63-3.46 1.88-17.97-2.46-24.91s-12.01-10.67-16.81-7.81z"/>
  <path class="cls-5" d="m409.67 77.32c-38.23 38.56 63.25 41.57 84.04 162.48 11.64 67.69-17.83 112.25-41.47 136.1 13.77 3.63 35.1 13.7 52.8 35.28 13.58 16.56 19.5 28.41 22.02 36.63 27.91-36.87 67.02-109.06 43.47-204.36-33.48-135.49-141.2-185.98-160.87-166.14z"/>
  <path class="cls-7" d="m283.58,71.74c48.6-11.18,69.5.9,70.27-8.65.72-8.98-28.3-24.13-73.06-23.03-45.31,1.11-69.13,21.81-64.06,42.11,4.03,16.14,28.47-1.6,66.85-10.42Z"/>
  <path class="cls-7" d="m174.58 120.43c15.69-10.02 20.07-29.27 12.14-33.47-8-4.24-26.57 6.78-33.28 25.7-4.01 11.32 5.44 17.79 21.13 7.77z"/>
  <path class="cls-5" d="m429.95 394.45c-21.32-7.35-42.09-1.62-64.94 10.09-15.56 7.98-32.09 18.73-50.42 30.02-45.23 27.85-85.48 12.55-85.48 12.55s6.05 26.72 23.46 52.06c22.67 33 60.18 58.34 106.19 65.08 5.47 0.8 11.05 1.36 16.75 1.61 53.64 2.41 107.43-33.16 113.09-74.21s-15.76-82.41-58.66-97.19z"/>
  <path class="cls-5" d="m772.98 276.35c-37.89-10-79.96 2.72-101.83 11.28-1.32-4.26-2.78-6.98-4.39-7.78-11.41-5.7-45.62-4.96-54.18 6.13-8.4 10.89 5.7 104.94 7.84 184.91s-19.53 171.05-13.83 185.31 56.69 34.56 62.35 18.07c4.29-12.5 9.96-94.84 12.36-162.64 11.29-0.74 27.57-2.4 51.04-5.69 71.29-9.98 119.76-73.43 119.54-130.43-0.22-57.01-24.73-84.85-78.91-99.16zm-2.14 135.49c-20.81 27.1-63.29 33.79-88.43 35.29-0.2-27.86-1.06-61.07-2.81-90.56 14.06-7.37 35.72-16.37 60.9-18.69 44.51-4.1 61 34.04 30.34 73.96z"/>
  <path class="cls-5" d="m1109.3 426.29c-20.07-3.77-42.25 40.31-89.36 40.31s-61.97-46.28-63.27-73.55 6.16-56.12 23.05-72.02c16.88-15.9 74.58-25.19 76 18.54 0.79 24.2-60.93 15.19-73.93 27.52-7.81 7.41-7.13 24.48 0 30.65 13.84 12 75.56 10.69 103.96-10.57 31.46-23.56 31.16-67.68 18.79-93.53-18.55-38.76-96.36-57.91-156.95-22.04-45.54 26.97-66.87 96.78-51.24 155.93 15.63 59.14 61.63 99.27 116.16 99.27s96.09-27.27 105.18-42.85 11.69-53.89-8.39-57.65z"/>
  <path class="cls-5" d="m1321 275.43c-41.6-10.04-72.52 3.84-87.04 12.82-2.05-12.15-5.71-22.27-12.05-27.64-8.18-6.92-43.49-9.27-52.75 6.42-6.84 11.58-5.7 74.85-3.56 117.62s-7.13 151.13 3.56 158.26 59.17 4.99 62.73-10.69c2.64-11.63 3.33-96.54 3.79-151.58 7.56-17.25 18.94-33.29 28.29-40.18 13.54-9.98 42.77-9.27 56.32 12.12 13.54 21.39 4.28 156.48 7.13 172.87 2.85 16.4 34.22 17.82 54.18 12.12s13.54-82.39 12.36-149.35c-0.74-41.93-1.66-95.58-72.95-112.78z"/>
 </g>
</svg>
